<svg width="22" height="32" viewBox="0 0 22 32" fill="none" xmlns="http://www.w3.org/2000/svg">
<path d="M20.8163 29.9425H20.2534C20.2534 29.9365 20.2506 29.9306 20.2495 29.9249L20.2341 29.8561C20.2242 29.8108 20.2135 29.7659 20.2025 29.7214C20.1978 29.7004 20.1926 29.6794 20.1875 29.6585C20.1729 29.5997 20.1575 29.541 20.1417 29.4822L20.137 29.4654C20.1196 29.4017 20.1014 29.3384 20.0825 29.2753L20.0635 29.2143C20.0505 29.1708 20.0367 29.1278 20.0241 29.0848C20.0166 29.0612 20.0087 29.038 20.0012 29.0148C19.9874 28.9732 19.9731 28.9317 19.9585 28.8905C19.951 28.8688 19.9431 28.8467 19.9356 28.8254C19.9172 28.7738 19.8983 28.7225 19.8788 28.6716C19.8745 28.6607 19.8709 28.6503 19.8666 28.6394C19.8437 28.5795 19.8196 28.52 19.7951 28.4605C19.7864 28.4388 19.7773 28.4175 19.7683 28.3962C19.7517 28.3587 19.7351 28.3176 19.7181 28.2786L19.6862 28.2064C19.6696 28.169 19.6526 28.1316 19.6352 28.0941C19.6246 28.0709 19.6135 28.0474 19.6025 28.0242C19.5823 27.9811 19.563 27.9385 19.5405 27.8962C19.5322 27.8801 19.5247 27.8636 19.5164 27.8471C19.4884 27.7914 19.4596 27.7349 19.4304 27.681L19.3909 27.611L19.3352 27.5096L19.2918 27.4347C19.2736 27.4033 19.2555 27.3718 19.2369 27.3404C19.2223 27.315 19.2073 27.2895 19.1923 27.2656C19.1718 27.2315 19.1529 27.1982 19.1304 27.1645L19.0735 27.0732C19.0467 27.0313 19.0198 26.989 18.9922 26.9475C18.9748 26.9213 18.9575 26.8954 18.9397 26.8696C18.9219 26.8438 18.9026 26.8142 18.8836 26.7869C18.8647 26.7596 18.8442 26.7323 18.8268 26.7053C18.8094 26.6784 18.7905 26.6541 18.7719 26.6305C18.7534 26.6069 18.7324 26.5755 18.7123 26.5481L18.6567 26.4733C18.6172 26.4235 18.5809 26.3737 18.5422 26.3236L18.4881 26.2551C18.4652 26.2263 18.4415 26.1978 18.4182 26.1694L18.3661 26.1065C18.342 26.0777 18.3176 26.0493 18.2931 26.0205L18.2418 25.9613L18.1652 25.8745L18.1198 25.8244C18.0254 25.7207 17.9287 25.6185 17.8297 25.519L17.7862 25.4752L17.6954 25.3865L17.6508 25.3438C17.6192 25.3135 17.5877 25.2836 17.5557 25.254L17.5229 25.2241C17.4112 25.1212 17.2963 25.0209 17.1795 24.9247L17.1475 24.8981C17.1115 24.8682 17.0752 24.8386 17.0386 24.8094L17.0023 24.7802C16.9628 24.7503 16.9269 24.7207 16.8886 24.6911L16.8692 24.6765C16.7401 24.5777 16.6079 24.4816 16.4745 24.3891L16.4559 24.376C16.4137 24.3472 16.3714 24.3188 16.3288 24.2907L16.3008 24.2724C16.2574 24.2435 16.2135 24.2155 16.1697 24.1874L16.1622 24.1829C16.017 24.0909 15.8689 24.0027 15.7181 23.9183L15.7122 23.9146C15.6645 23.888 15.6167 23.8622 15.5689 23.8364L15.548 23.8251C15.2938 23.6892 15.0327 23.5644 14.7648 23.4509L14.7482 23.4438C14.6776 23.4138 14.6065 23.385 14.5347 23.3566H15.9475C16.1776 23.3566 16.3643 23.1055 16.3643 22.7952C16.3643 22.485 16.1776 22.2339 15.9475 22.2339H15.5267C15.5527 22.171 15.5816 22.0999 15.6127 22.0198C16.0106 21.7848 16.7109 21.284 17.4057 20.3641L17.4112 20.357C17.4639 20.2882 17.5156 20.2169 17.5664 20.1433L17.5766 20.1287C17.6271 20.0565 17.6777 19.982 17.7274 19.9042L17.7408 19.8836C17.7645 19.8462 17.7882 19.8088 17.8119 19.7713C17.8119 19.7713 17.8119 19.7683 17.8147 19.7665C17.8391 19.729 17.8632 19.6879 17.8873 19.6478L17.9027 19.622C17.9232 19.5876 17.9441 19.5524 17.9643 19.5169C17.9682 19.5105 17.9722 19.5041 17.9757 19.4974C17.999 19.457 18.0223 19.4158 18.0452 19.3743L18.061 19.3454C18.0799 19.311 18.0985 19.2762 18.117 19.241C18.1226 19.2313 18.1281 19.2212 18.1332 19.2111C18.1553 19.1688 18.1774 19.1261 18.1995 19.0827L18.2149 19.0524C18.2323 19.0172 18.2501 18.9813 18.2674 18.9454L18.2864 18.908C18.3077 18.8638 18.3286 18.8189 18.3495 18.7736L18.3626 18.7448C18.3799 18.7074 18.3969 18.6699 18.4139 18.6325L18.434 18.5876C18.4537 18.5423 18.4735 18.4967 18.4924 18.4506C18.496 18.4424 18.4995 18.4338 18.5027 18.4256C18.5205 18.3833 18.5378 18.3402 18.5552 18.2968L18.5749 18.2474C18.5911 18.2062 18.6073 18.1647 18.6231 18.1232L18.6349 18.0917C18.6535 18.0423 18.6716 17.9918 18.6898 17.942L18.7088 17.8889C18.723 17.8492 18.7368 17.8088 18.7506 17.7684C18.7557 17.7534 18.7609 17.7384 18.7656 17.7235C18.783 17.6718 18.8003 17.6191 18.8173 17.5663C18.8228 17.548 18.8288 17.5289 18.8343 17.5116L18.8738 17.3885C18.8789 17.3706 18.8844 17.3511 18.8896 17.335C18.9057 17.2807 18.9219 17.2254 18.9373 17.1696C18.9424 17.152 18.9472 17.134 18.9519 17.1161C18.9638 17.073 18.9756 17.03 18.9871 16.9862C18.9922 16.9664 18.9973 16.9465 19.0028 16.9267C19.0175 16.8691 19.0321 16.8111 19.0463 16.7523L19.0581 16.7033C19.0692 16.6565 19.0802 16.6093 19.0909 16.5618L19.1051 16.4982C19.1185 16.4372 19.1319 16.3762 19.1446 16.3141C19.1473 16.3021 19.1497 16.2897 19.1521 16.2766C19.1631 16.2231 19.1738 16.1689 19.184 16.1146C19.1884 16.0925 19.1923 16.0704 19.1967 16.0484C19.2069 15.9926 19.2168 15.9361 19.2267 15.8803C19.2286 15.8683 19.231 15.8567 19.233 15.8451C19.244 15.7793 19.2548 15.7129 19.2654 15.646C19.2689 15.6236 19.2725 15.6011 19.2756 15.5783C19.2839 15.524 19.2918 15.4694 19.2997 15.414L19.3068 15.3631C19.3163 15.2943 19.3254 15.225 19.334 15.1547C19.3368 15.1326 19.3392 15.1105 19.3419 15.088C19.3488 15.0322 19.3551 14.976 19.3609 14.9196C19.3633 14.8994 19.3656 14.8796 19.3676 14.8594C19.3752 14.787 19.3823 14.7141 19.3889 14.6405C19.3889 14.6199 19.3925 14.5993 19.394 14.5783C19.3992 14.5192 19.4043 14.4597 19.4086 14.3998C19.4086 14.3777 19.4122 14.3557 19.4138 14.3336C19.4193 14.2572 19.4244 14.1804 19.4292 14.103C19.4292 14.0855 19.4292 14.0656 19.4319 14.0499C19.4355 13.9855 19.439 13.9208 19.4418 13.8557C19.4418 13.8321 19.4418 13.8085 19.445 13.7849C19.4481 13.7045 19.4513 13.6236 19.4537 13.5417C19.4537 13.5304 19.4537 13.5188 19.4537 13.5072C19.4558 13.4344 19.4573 13.3608 19.4584 13.2864C19.4584 13.2621 19.4584 13.2378 19.4584 13.2135C19.4584 13.1336 19.4584 13.0533 19.4584 12.9725V12.9537C19.4584 12.8677 19.4584 12.7805 19.4584 12.6918V12.6169C19.4584 12.5421 19.4552 12.4635 19.4533 12.3856V12.3433C19.4505 12.2535 19.4469 12.1626 19.4434 12.0713C19.4434 12.0477 19.441 12.0237 19.4402 12.0002C19.4368 11.9233 19.4329 11.846 19.4284 11.7681C19.4284 11.749 19.4284 11.7307 19.4252 11.7101C19.4197 11.6166 19.4136 11.5223 19.4071 11.4272L19.4023 11.361C19.3964 11.2816 19.3905 11.2019 19.3838 11.1214C19.3838 11.0982 19.3802 11.075 19.3783 11.0518C19.37 10.9545 19.3609 10.8561 19.3514 10.7573C19.3514 10.7386 19.3475 10.7199 19.3459 10.7008C19.3376 10.6166 19.3285 10.5316 19.3194 10.4459C19.3167 10.4201 19.3139 10.3947 19.3108 10.3688C19.2997 10.267 19.2879 10.1649 19.2752 10.0612C19.2752 10.0485 19.2717 10.0358 19.2701 10.0238C19.2588 9.93098 19.2468 9.83768 19.2342 9.74388C19.2302 9.71618 19.2267 9.68848 19.2227 9.66078C19.208 9.55448 19.1929 9.44728 19.1773 9.33928C17.5983 -1.31695 6.40876 0.412436 6.40876 0.412436L6.76719 2.70206L0 9.47958L0.295667 12.0967L2.85917 13.5937C2.97345 13.3183 3.12017 13.0561 3.29655 12.8119C4.95055 11.0032 8.15947 9.58328 9.07805 9.28878C9.26201 9.22998 9.36662 9.20038 9.36662 9.20038C4.97266 14.5918 5.47241 20.7683 5.66821 22.2406C5.46452 22.278 5.30701 22.5112 5.30701 22.7956C5.30701 23.1055 5.49373 23.357 5.72387 23.357H7.13668C4.78699 24.2894 2.92185 26.0653 1.94848 28.297C1.94734 28.3 1.94602 28.303 1.94454 28.306C1.87269 28.4716 1.80585 28.6397 1.74401 28.8101V28.8153C1.72743 28.8617 1.71124 28.9081 1.69545 28.9549C1.68953 28.9717 1.68361 28.9886 1.67808 29.0058C1.66387 29.0477 1.65071 29.09 1.63861 29.1327C1.6315 29.1544 1.62479 29.1765 1.61808 29.1982C1.60545 29.2382 1.59321 29.2786 1.58137 29.319L1.56005 29.3939C1.549 29.4313 1.53795 29.4714 1.52768 29.5103C1.52018 29.538 1.51308 29.5653 1.50597 29.593C1.4965 29.6304 1.48663 29.6678 1.47755 29.7053C1.46847 29.7427 1.45978 29.7801 1.4511 29.8198C1.44241 29.8594 1.43136 29.9059 1.42189 29.9493H0.85858C0.750258 29.947 0.642551 29.9653 0.541778 30.003C0.441006 30.0407 0.3492 30.0972 0.271747 30.169C0.194294 30.2408 0.13275 30.3266 0.0907365 30.4213C0.0487226 30.516 0.0270812 30.6177 0.0270812 30.7204C0.0270812 30.8231 0.0487226 30.9248 0.0907365 31.0195C0.13275 31.1142 0.194294 31.1999 0.271747 31.2718C0.3492 31.3436 0.441006 31.4 0.541778 31.4378C0.642551 31.4755 0.750258 31.4938 0.85858 31.4915H20.8234C20.9318 31.4938 21.0395 31.4755 21.1402 31.4378C21.241 31.4 21.3328 31.3436 21.4103 31.2718C21.4877 31.1999 21.5493 31.1142 21.5913 31.0195C21.6333 30.9248 21.6549 30.8231 21.6549 30.7204C21.6549 30.6177 21.6333 30.516 21.5913 30.4213C21.5493 30.3266 21.4877 30.2408 21.4103 30.169C21.3328 30.0972 21.241 30.0407 21.1402 30.003C21.0395 29.9653 20.9318 29.947 20.8234 29.9493L20.8163 29.9425Z" fill="#595653"/>
</svg>
